<mxfile host="app.diagrams.net" agent="Mozilla/5.0 (Windows NT 10.0; Win64; x64) AppleWebKit/537.36 (KHTML, like Gecko) Chrome/131.0.0.0 Safari/537.36 OPR/116.0.0.0" version="26.0.16" pages="6">
  <diagram name="Dia Casos de Uso" id="e7e014a7-5840-1c2e-5031-d8a46d1fe8dd">
    <mxGraphModel dx="878" dy="435" grid="1" gridSize="10" guides="1" tooltips="1" connect="1" arrows="1" fold="1" page="1" pageScale="1" pageWidth="1169" pageHeight="826" background="#ffffff" math="0" shadow="0">
      <root>
        <mxCell id="0" />
        <mxCell id="1" parent="0" />
        <mxCell id="reJXCeZaUsh4rS7zFX-W-1" value="Diagrama original" style="shape=umlFrame;whiteSpace=wrap;html=1;width=80;height=40;" parent="1" vertex="1">
          <mxGeometry x="40" y="10" width="1010" height="392" as="geometry" />
        </mxCell>
        <mxCell id="peyAzBbjP7zFCUwVKN7W-41" value="Cliente" style="shape=umlActor;verticalLabelPosition=bottom;labelBackgroundColor=#ffffff;verticalAlign=top;html=1;" parent="1" vertex="1">
          <mxGeometry x="180" y="70" width="30" height="60" as="geometry" />
        </mxCell>
        <mxCell id="peyAzBbjP7zFCUwVKN7W-42" value="Comprar Productos" style="ellipse;whiteSpace=wrap;html=1;" parent="1" vertex="1">
          <mxGeometry x="460" y="120" width="140" height="70" as="geometry" />
        </mxCell>
        <mxCell id="peyAzBbjP7zFCUwVKN7W-43" value="Buscar Productos" style="ellipse;whiteSpace=wrap;html=1;" parent="1" vertex="1">
          <mxGeometry x="280" y="200" width="140" height="70" as="geometry" />
        </mxCell>
        <mxCell id="peyAzBbjP7zFCUwVKN7W-44" value="Darse de Alta" style="ellipse;whiteSpace=wrap;html=1;" parent="1" vertex="1">
          <mxGeometry x="560" y="20" width="140" height="70" as="geometry" />
        </mxCell>
        <mxCell id="peyAzBbjP7zFCUwVKN7W-45" value="" style="html=1;verticalAlign=bottom;endArrow=none;endFill=0;exitX=0;exitY=0.5;exitDx=0;exitDy=0;" parent="1" source="peyAzBbjP7zFCUwVKN7W-42" target="peyAzBbjP7zFCUwVKN7W-41" edge="1">
          <mxGeometry x="-0.7647" y="-111" width="80" relative="1" as="geometry">
            <mxPoint x="300" y="280" as="sourcePoint" />
            <mxPoint x="210" y="90" as="targetPoint" />
            <mxPoint as="offset" />
          </mxGeometry>
        </mxCell>
        <mxCell id="peyAzBbjP7zFCUwVKN7W-46" value="" style="html=1;verticalAlign=bottom;endArrow=none;endFill=0;exitX=0;exitY=0;exitDx=0;exitDy=0;" parent="1" source="peyAzBbjP7zFCUwVKN7W-43" edge="1">
          <mxGeometry x="-0.7647" y="-111" width="80" relative="1" as="geometry">
            <mxPoint x="290" y="65" as="sourcePoint" />
            <mxPoint x="220" y="120" as="targetPoint" />
            <mxPoint as="offset" />
          </mxGeometry>
        </mxCell>
        <mxCell id="peyAzBbjP7zFCUwVKN7W-47" value="" style="html=1;verticalAlign=bottom;endArrow=none;endFill=0;exitX=0;exitY=0.5;exitDx=0;exitDy=0;" parent="1" source="peyAzBbjP7zFCUwVKN7W-44" edge="1">
          <mxGeometry x="-0.7647" y="-111" width="80" relative="1" as="geometry">
            <mxPoint x="300" y="75" as="sourcePoint" />
            <mxPoint x="220" y="76" as="targetPoint" />
            <mxPoint as="offset" />
          </mxGeometry>
        </mxCell>
        <mxCell id="peyAzBbjP7zFCUwVKN7W-48" value="Administrativo" style="shape=umlActor;verticalLabelPosition=bottom;labelBackgroundColor=#ffffff;verticalAlign=top;html=1;" parent="1" vertex="1">
          <mxGeometry x="880" y="70" width="30" height="60" as="geometry" />
        </mxCell>
        <mxCell id="peyAzBbjP7zFCUwVKN7W-50" value="Insertar Producto" style="ellipse;whiteSpace=wrap;html=1;" parent="1" vertex="1">
          <mxGeometry x="680" y="160" width="140" height="70" as="geometry" />
        </mxCell>
        <mxCell id="peyAzBbjP7zFCUwVKN7W-51" value="" style="html=1;verticalAlign=bottom;endArrow=none;endFill=0;exitX=1;exitY=1;exitDx=0;exitDy=0;" parent="1" source="peyAzBbjP7zFCUwVKN7W-44" target="peyAzBbjP7zFCUwVKN7W-48" edge="1">
          <mxGeometry x="-0.7647" y="-111" width="80" relative="1" as="geometry">
            <mxPoint x="480" y="155" as="sourcePoint" />
            <mxPoint x="240" y="120" as="targetPoint" />
            <mxPoint as="offset" />
          </mxGeometry>
        </mxCell>
        <mxCell id="peyAzBbjP7zFCUwVKN7W-52" value="" style="html=1;verticalAlign=bottom;endArrow=none;endFill=0;entryX=0.5;entryY=0;entryDx=0;entryDy=0;" parent="1" source="peyAzBbjP7zFCUwVKN7W-48" target="peyAzBbjP7zFCUwVKN7W-50" edge="1">
          <mxGeometry x="-0.7647" y="-111" width="80" relative="1" as="geometry">
            <mxPoint x="490" y="165" as="sourcePoint" />
            <mxPoint x="250" y="130" as="targetPoint" />
            <mxPoint as="offset" />
          </mxGeometry>
        </mxCell>
        <mxCell id="reJXCeZaUsh4rS7zFX-W-2" value="Diagrama con los cambios propuestos en el ejercicio 4" style="shape=umlFrame;whiteSpace=wrap;html=1;width=180;height=65;" parent="1" vertex="1">
          <mxGeometry x="40" y="435.33" width="1010" height="390" as="geometry" />
        </mxCell>
        <mxCell id="reJXCeZaUsh4rS7zFX-W-45" value="Cliente" style="shape=umlActor;verticalLabelPosition=bottom;labelBackgroundColor=#ffffff;verticalAlign=top;html=1;" parent="1" vertex="1">
          <mxGeometry x="120" y="530" width="30" height="60" as="geometry" />
        </mxCell>
        <mxCell id="reJXCeZaUsh4rS7zFX-W-46" value="Administrativo" style="shape=umlActor;verticalLabelPosition=bottom;labelBackgroundColor=#ffffff;verticalAlign=top;html=1;" parent="1" vertex="1">
          <mxGeometry x="880" y="530" width="30" height="60" as="geometry" />
        </mxCell>
        <mxCell id="reJXCeZaUsh4rS7zFX-W-47" value="Darse de Alta" style="ellipse;whiteSpace=wrap;html=1;" parent="1" vertex="1">
          <mxGeometry x="560" y="470" width="140" height="70" as="geometry" />
        </mxCell>
        <mxCell id="reJXCeZaUsh4rS7zFX-W-48" value="Comprar Productos" style="ellipse;whiteSpace=wrap;html=1;" parent="1" vertex="1">
          <mxGeometry x="420" y="560" width="140" height="70" as="geometry" />
        </mxCell>
        <mxCell id="reJXCeZaUsh4rS7zFX-W-49" value="Buscar Productos" style="ellipse;whiteSpace=wrap;html=1;" parent="1" vertex="1">
          <mxGeometry x="240" y="650" width="140" height="70" as="geometry" />
        </mxCell>
        <mxCell id="reJXCeZaUsh4rS7zFX-W-50" value="Insertar Producto" style="ellipse;whiteSpace=wrap;html=1;" parent="1" vertex="1">
          <mxGeometry x="680" y="660" width="140" height="70" as="geometry" />
        </mxCell>
        <mxCell id="reJXCeZaUsh4rS7zFX-W-51" value="&amp;lt;&amp;lt;include&amp;gt;&amp;gt;" style="html=1;verticalAlign=bottom;endArrow=open;dashed=1;endSize=8;exitX=0.5;exitY=1;exitDx=0;exitDy=0;" parent="1" edge="1">
          <mxGeometry x="-0.0999" y="4" relative="1" as="geometry">
            <mxPoint x="500" y="630" as="sourcePoint" />
            <mxPoint x="528.0061177674127" y="710.5175885813117" as="targetPoint" />
            <mxPoint as="offset" />
          </mxGeometry>
        </mxCell>
        <mxCell id="reJXCeZaUsh4rS7zFX-W-52" value="Recuperar informaciÃ³n producto" style="ellipse;whiteSpace=wrap;html=1;" parent="1" vertex="1">
          <mxGeometry x="470" y="710" width="140" height="70" as="geometry" />
        </mxCell>
        <mxCell id="reJXCeZaUsh4rS7zFX-W-53" value="&amp;lt;&amp;lt;include&amp;gt;&amp;gt;" style="html=1;verticalAlign=bottom;endArrow=open;dashed=1;endSize=8;entryX=0;entryY=0;entryDx=0;entryDy=0;" parent="1" source="reJXCeZaUsh4rS7zFX-W-49" target="reJXCeZaUsh4rS7zFX-W-52" edge="1">
          <mxGeometry x="-0.0999" y="4" relative="1" as="geometry">
            <mxPoint x="398.3600000000001" y="276.99" as="sourcePoint" />
            <mxPoint x="510" y="315" as="targetPoint" />
            <mxPoint as="offset" />
          </mxGeometry>
        </mxCell>
        <mxCell id="reJXCeZaUsh4rS7zFX-W-54" value="" style="html=1;verticalAlign=bottom;endArrow=none;endFill=0;entryX=0.5;entryY=0;entryDx=0;entryDy=0;" parent="1" edge="1">
          <mxGeometry x="-0.7647" y="-111" width="80" relative="1" as="geometry">
            <mxPoint x="900" y="606.2068965517242" as="sourcePoint" />
            <mxPoint x="770" y="660" as="targetPoint" />
            <mxPoint as="offset" />
          </mxGeometry>
        </mxCell>
        <mxCell id="reJXCeZaUsh4rS7zFX-W-55" value="" style="html=1;verticalAlign=bottom;endArrow=none;endFill=0;exitX=1;exitY=0.5;exitDx=0;exitDy=0;" parent="1" source="reJXCeZaUsh4rS7zFX-W-47" target="reJXCeZaUsh4rS7zFX-W-46" edge="1">
          <mxGeometry x="-0.7647" y="-111" width="80" relative="1" as="geometry">
            <mxPoint x="659.9974746830585" y="511.15873734152916" as="sourcePoint" />
            <mxPoint x="860.5" y="530.0004158690006" as="targetPoint" />
            <mxPoint as="offset" />
          </mxGeometry>
        </mxCell>
        <mxCell id="reJXCeZaUsh4rS7zFX-W-56" value="" style="html=1;verticalAlign=bottom;endArrow=none;endFill=0;" parent="1" source="reJXCeZaUsh4rS7zFX-W-47" edge="1">
          <mxGeometry x="-0.7647" y="-111" width="80" relative="1" as="geometry">
            <mxPoint x="490" y="530" as="sourcePoint" />
            <mxPoint x="160" y="551" as="targetPoint" />
            <mxPoint as="offset" />
          </mxGeometry>
        </mxCell>
        <mxCell id="reJXCeZaUsh4rS7zFX-W-57" value="" style="html=1;verticalAlign=bottom;endArrow=none;endFill=0;exitX=0;exitY=0.5;exitDx=0;exitDy=0;" parent="1" source="reJXCeZaUsh4rS7zFX-W-48" edge="1">
          <mxGeometry x="-0.7647" y="-111" width="80" relative="1" as="geometry">
            <mxPoint x="420" y="620.94" as="sourcePoint" />
            <mxPoint x="170" y="569.0532075471697" as="targetPoint" />
            <mxPoint as="offset" />
          </mxGeometry>
        </mxCell>
        <mxCell id="reJXCeZaUsh4rS7zFX-W-59" value="" style="html=1;verticalAlign=bottom;endArrow=none;endFill=0;exitX=0.048;exitY=0.314;exitDx=0;exitDy=0;exitPerimeter=0;entryX=1;entryY=1;entryDx=0;entryDy=0;entryPerimeter=0;" parent="1" source="reJXCeZaUsh4rS7zFX-W-49" target="reJXCeZaUsh4rS7zFX-W-45" edge="1">
          <mxGeometry x="-0.7647" y="-111" width="80" relative="1" as="geometry">
            <mxPoint x="310.5025253169417" y="220.25126265847075" as="sourcePoint" />
            <mxPoint x="230" y="130" as="targetPoint" />
            <mxPoint as="offset" />
          </mxGeometry>
        </mxCell>
      </root>
    </mxGraphModel>
  </diagram>
  <diagram id="4f1WD7OtIoCp4wATO2-B" name="D.Secuencia CU001">
    <mxGraphModel dx="878" dy="435" grid="1" gridSize="10" guides="1" tooltips="1" connect="1" arrows="1" fold="1" page="1" pageScale="1" pageWidth="827" pageHeight="1169" math="0" shadow="0">
      <root>
        <mxCell id="ivtQCA6dUdX5x4wMnf0Y-0" />
        <mxCell id="ivtQCA6dUdX5x4wMnf0Y-1" parent="ivtQCA6dUdX5x4wMnf0Y-0" />
        <mxCell id="ivtQCA6dUdX5x4wMnf0Y-24" value="loop" style="shape=umlFrame;whiteSpace=wrap;html=1;width=60;height=20;" parent="ivtQCA6dUdX5x4wMnf0Y-1" vertex="1">
          <mxGeometry x="130" y="355" width="300" height="85" as="geometry" />
        </mxCell>
        <mxCell id="ivtQCA6dUdX5x4wMnf0Y-18" value="alt" style="shape=umlFrame;whiteSpace=wrap;html=1;width=60;height=20;" parent="ivtQCA6dUdX5x4wMnf0Y-1" vertex="1">
          <mxGeometry x="110" y="310" width="700" height="230" as="geometry" />
        </mxCell>
        <mxCell id="ivtQCA6dUdX5x4wMnf0Y-2" value="cliente" style="shape=umlLifeline;participant=umlActor;perimeter=lifelinePerimeter;whiteSpace=wrap;html=1;container=1;collapsible=0;recursiveResize=0;verticalAlign=top;spacingTop=36;labelBackgroundColor=#ffffff;outlineConnect=0;" parent="ivtQCA6dUdX5x4wMnf0Y-1" vertex="1">
          <mxGeometry x="210" y="40" width="20" height="560" as="geometry" />
        </mxCell>
        <mxCell id="ivtQCA6dUdX5x4wMnf0Y-6" value="" style="html=1;points=[];perimeter=orthogonalPerimeter;" parent="ivtQCA6dUdX5x4wMnf0Y-2" vertex="1">
          <mxGeometry x="5" y="80" width="10" height="440" as="geometry" />
        </mxCell>
        <mxCell id="ivtQCA6dUdX5x4wMnf0Y-3" value=":BuscarProductos" style="shape=umlLifeline;participant=umlBoundary;perimeter=lifelinePerimeter;whiteSpace=wrap;html=1;container=1;collapsible=0;recursiveResize=0;verticalAlign=top;spacingTop=36;labelBackgroundColor=#ffffff;outlineConnect=0;" parent="ivtQCA6dUdX5x4wMnf0Y-1" vertex="1">
          <mxGeometry x="350" y="40" width="50" height="560" as="geometry" />
        </mxCell>
        <mxCell id="ivtQCA6dUdX5x4wMnf0Y-7" value="" style="html=1;points=[];perimeter=orthogonalPerimeter;" parent="ivtQCA6dUdX5x4wMnf0Y-3" vertex="1">
          <mxGeometry x="20" y="80" width="10" height="440" as="geometry" />
        </mxCell>
        <mxCell id="ivtQCA6dUdX5x4wMnf0Y-4" value=":DatosProductos" style="shape=umlLifeline;participant=umlEntity;perimeter=lifelinePerimeter;whiteSpace=wrap;html=1;container=1;collapsible=0;recursiveResize=0;verticalAlign=top;spacingTop=36;labelBackgroundColor=#ffffff;outlineConnect=0;" parent="ivtQCA6dUdX5x4wMnf0Y-1" vertex="1">
          <mxGeometry x="760" y="40" width="40" height="560" as="geometry" />
        </mxCell>
        <mxCell id="ivtQCA6dUdX5x4wMnf0Y-13" value="" style="html=1;points=[];perimeter=orthogonalPerimeter;" parent="ivtQCA6dUdX5x4wMnf0Y-4" vertex="1">
          <mxGeometry x="15" y="180" width="10" height="60" as="geometry" />
        </mxCell>
        <mxCell id="ivtQCA6dUdX5x4wMnf0Y-5" value=":GestionProductos" style="shape=umlLifeline;participant=umlControl;perimeter=lifelinePerimeter;whiteSpace=wrap;html=1;container=1;collapsible=0;recursiveResize=0;verticalAlign=top;spacingTop=36;labelBackgroundColor=#ffffff;outlineConnect=0;" parent="ivtQCA6dUdX5x4wMnf0Y-1" vertex="1">
          <mxGeometry x="560" y="40" width="40" height="560" as="geometry" />
        </mxCell>
        <mxCell id="ivtQCA6dUdX5x4wMnf0Y-12" value="" style="html=1;points=[];perimeter=orthogonalPerimeter;" parent="ivtQCA6dUdX5x4wMnf0Y-5" vertex="1">
          <mxGeometry x="15" y="170" width="10" height="80" as="geometry" />
        </mxCell>
        <mxCell id="ivtQCA6dUdX5x4wMnf0Y-8" value="buscarProductos()" style="html=1;verticalAlign=bottom;endArrow=block;entryX=0.094;entryY=0.003;entryDx=0;entryDy=0;entryPerimeter=0;" parent="ivtQCA6dUdX5x4wMnf0Y-1" source="ivtQCA6dUdX5x4wMnf0Y-2" target="ivtQCA6dUdX5x4wMnf0Y-7" edge="1">
          <mxGeometry width="80" relative="1" as="geometry">
            <mxPoint x="160" y="620" as="sourcePoint" />
            <mxPoint x="240" y="620" as="targetPoint" />
          </mxGeometry>
        </mxCell>
        <mxCell id="ivtQCA6dUdX5x4wMnf0Y-10" value="mostrarCriterios()" style="html=1;verticalAlign=bottom;endArrow=block;entryX=0.5;entryY=0.083;entryDx=0;entryDy=0;entryPerimeter=0;" parent="ivtQCA6dUdX5x4wMnf0Y-1" source="ivtQCA6dUdX5x4wMnf0Y-7" target="ivtQCA6dUdX5x4wMnf0Y-6" edge="1">
          <mxGeometry width="80" relative="1" as="geometry">
            <mxPoint x="160" y="620" as="sourcePoint" />
            <mxPoint x="240" y="620" as="targetPoint" />
          </mxGeometry>
        </mxCell>
        <mxCell id="ivtQCA6dUdX5x4wMnf0Y-11" value="criterios" style="html=1;verticalAlign=bottom;endArrow=open;dashed=1;endSize=8;entryX=-0.259;entryY=0.177;entryDx=0;entryDy=0;entryPerimeter=0;" parent="ivtQCA6dUdX5x4wMnf0Y-1" source="ivtQCA6dUdX5x4wMnf0Y-6" target="ivtQCA6dUdX5x4wMnf0Y-7" edge="1">
          <mxGeometry relative="1" as="geometry">
            <mxPoint x="240" y="620" as="sourcePoint" />
            <mxPoint x="160" y="620" as="targetPoint" />
          </mxGeometry>
        </mxCell>
        <mxCell id="ivtQCA6dUdX5x4wMnf0Y-14" value="buscarProductos(criterios)" style="html=1;verticalAlign=bottom;endArrow=block;entryX=0.418;entryY=0.024;entryDx=0;entryDy=0;entryPerimeter=0;" parent="ivtQCA6dUdX5x4wMnf0Y-1" target="ivtQCA6dUdX5x4wMnf0Y-12" edge="1">
          <mxGeometry width="80" relative="1" as="geometry">
            <mxPoint x="380.00352941176465" y="210.00000000000006" as="sourcePoint" />
            <mxPoint x="571.6200000000001" y="210.00000000000006" as="targetPoint" />
          </mxGeometry>
        </mxCell>
        <mxCell id="ivtQCA6dUdX5x4wMnf0Y-15" value="buscarProductos(criterios)" style="html=1;verticalAlign=bottom;endArrow=block;entryX=0.182;entryY=0.003;entryDx=0;entryDy=0;entryPerimeter=0;exitX=1.241;exitY=0.112;exitDx=0;exitDy=0;exitPerimeter=0;" parent="ivtQCA6dUdX5x4wMnf0Y-1" source="ivtQCA6dUdX5x4wMnf0Y-12" target="ivtQCA6dUdX5x4wMnf0Y-13" edge="1">
          <mxGeometry width="80" relative="1" as="geometry">
            <mxPoint x="590" y="220" as="sourcePoint" />
            <mxPoint x="770" y="222" as="targetPoint" />
          </mxGeometry>
        </mxCell>
        <mxCell id="ivtQCA6dUdX5x4wMnf0Y-16" value="productos" style="html=1;verticalAlign=bottom;endArrow=open;dashed=1;endSize=8;" parent="ivtQCA6dUdX5x4wMnf0Y-1" edge="1">
          <mxGeometry relative="1" as="geometry">
            <mxPoint x="780" y="280" as="sourcePoint" />
            <mxPoint x="590" y="280" as="targetPoint" />
          </mxGeometry>
        </mxCell>
        <mxCell id="ivtQCA6dUdX5x4wMnf0Y-17" value="productos" style="html=1;verticalAlign=bottom;endArrow=open;dashed=1;endSize=8;entryX=1.035;entryY=0.385;entryDx=0;entryDy=0;entryPerimeter=0;" parent="ivtQCA6dUdX5x4wMnf0Y-1" target="ivtQCA6dUdX5x4wMnf0Y-7" edge="1">
          <mxGeometry relative="1" as="geometry">
            <mxPoint x="580" y="290" as="sourcePoint" />
            <mxPoint x="390" y="290" as="targetPoint" />
          </mxGeometry>
        </mxCell>
        <mxCell id="ivtQCA6dUdX5x4wMnf0Y-19" value="[hay productos]" style="text;html=1;align=center;verticalAlign=middle;resizable=0;points=[];autosize=1;" parent="ivtQCA6dUdX5x4wMnf0Y-1" vertex="1">
          <mxGeometry x="110" y="330" width="100" height="20" as="geometry" />
        </mxCell>
        <mxCell id="ivtQCA6dUdX5x4wMnf0Y-20" value="[no hay productos]" style="text;html=1;align=center;verticalAlign=middle;resizable=0;points=[];autosize=1;" parent="ivtQCA6dUdX5x4wMnf0Y-1" vertex="1">
          <mxGeometry x="110" y="488" width="110" height="20" as="geometry" />
        </mxCell>
        <mxCell id="ivtQCA6dUdX5x4wMnf0Y-21" value="" style="line;strokeWidth=1;fillColor=none;align=left;verticalAlign=middle;spacingTop=-1;spacingLeft=3;spacingRight=3;rotatable=0;labelPosition=right;points=[];portConstraint=eastwest;dashed=1;" parent="ivtQCA6dUdX5x4wMnf0Y-1" vertex="1">
          <mxGeometry x="110" y="480" width="700" height="8" as="geometry" />
        </mxCell>
        <mxCell id="ivtQCA6dUdX5x4wMnf0Y-23" value="noProductos" style="html=1;verticalAlign=bottom;endArrow=open;dashed=1;endSize=8;" parent="ivtQCA6dUdX5x4wMnf0Y-1" edge="1">
          <mxGeometry relative="1" as="geometry">
            <mxPoint x="370" y="510" as="sourcePoint" />
            <mxPoint x="230" y="510" as="targetPoint" />
          </mxGeometry>
        </mxCell>
        <mxCell id="ivtQCA6dUdX5x4wMnf0Y-25" value="[para cada &lt;br&gt;producto]" style="text;html=1;align=center;verticalAlign=middle;resizable=0;points=[];autosize=1;" parent="ivtQCA6dUdX5x4wMnf0Y-1" vertex="1">
          <mxGeometry x="130" y="380" width="70" height="30" as="geometry" />
        </mxCell>
        <mxCell id="ivtQCA6dUdX5x4wMnf0Y-27" value="mostrarDatosProducto()" style="html=1;verticalAlign=bottom;endArrow=block;exitX=0;exitY=0.614;exitDx=0;exitDy=0;exitPerimeter=0;" parent="ivtQCA6dUdX5x4wMnf0Y-1" source="ivtQCA6dUdX5x4wMnf0Y-7" edge="1">
          <mxGeometry x="-0.0667" width="80" relative="1" as="geometry">
            <mxPoint x="110" y="620" as="sourcePoint" />
            <mxPoint x="220" y="390" as="targetPoint" />
            <mxPoint x="-1" as="offset" />
          </mxGeometry>
        </mxCell>
      </root>
    </mxGraphModel>
  </diagram>
  <diagram id="RRdd5SYt7SSlsOA90MhD" name="D.Secuencia CU001 BIS">
    <mxGraphModel dx="1108" dy="482" grid="1" gridSize="10" guides="1" tooltips="1" connect="1" arrows="1" fold="1" page="1" pageScale="1" pageWidth="827" pageHeight="1169" math="0" shadow="0">
      <root>
        <mxCell id="2M9a11WU54mTgExnEKtL-0" />
        <mxCell id="2M9a11WU54mTgExnEKtL-1" parent="2M9a11WU54mTgExnEKtL-0" />
        <mxCell id="fM0GSQkkwfbI1YpquLyl-1" value="alt" style="shape=umlFrame;whiteSpace=wrap;html=1;width=60;height=20;" parent="2M9a11WU54mTgExnEKtL-1" vertex="1">
          <mxGeometry x="95" y="230" width="365" height="190" as="geometry" />
        </mxCell>
        <mxCell id="fM0GSQkkwfbI1YpquLyl-0" value="loop" style="shape=umlFrame;whiteSpace=wrap;html=1;width=60;height=20;" parent="2M9a11WU54mTgExnEKtL-1" vertex="1">
          <mxGeometry x="130" y="270" width="300" height="70" as="geometry" />
        </mxCell>
        <mxCell id="fM0GSQkkwfbI1YpquLyl-2" value="cliente" style="shape=umlLifeline;participant=umlActor;perimeter=lifelinePerimeter;whiteSpace=wrap;html=1;container=1;collapsible=0;recursiveResize=0;verticalAlign=top;spacingTop=36;labelBackgroundColor=#ffffff;outlineConnect=0;" parent="2M9a11WU54mTgExnEKtL-1" vertex="1">
          <mxGeometry x="210" y="40" width="20" height="420" as="geometry" />
        </mxCell>
        <mxCell id="fM0GSQkkwfbI1YpquLyl-3" value="" style="html=1;points=[];perimeter=orthogonalPerimeter;" parent="fM0GSQkkwfbI1YpquLyl-2" vertex="1">
          <mxGeometry x="5" y="80" width="10" height="310" as="geometry" />
        </mxCell>
        <mxCell id="fM0GSQkkwfbI1YpquLyl-4" value=":BuscarProductos" style="shape=umlLifeline;participant=umlBoundary;perimeter=lifelinePerimeter;whiteSpace=wrap;html=1;container=1;collapsible=0;recursiveResize=0;verticalAlign=top;spacingTop=36;labelBackgroundColor=#ffffff;outlineConnect=0;" parent="2M9a11WU54mTgExnEKtL-1" vertex="1">
          <mxGeometry x="350" y="40" width="50" height="420" as="geometry" />
        </mxCell>
        <mxCell id="fM0GSQkkwfbI1YpquLyl-5" value="" style="html=1;points=[];perimeter=orthogonalPerimeter;" parent="fM0GSQkkwfbI1YpquLyl-4" vertex="1">
          <mxGeometry x="20" y="80" width="10" height="270" as="geometry" />
        </mxCell>
        <mxCell id="fM0GSQkkwfbI1YpquLyl-10" value="buscarProductos()" style="html=1;verticalAlign=bottom;endArrow=block;entryX=0.094;entryY=0.003;entryDx=0;entryDy=0;entryPerimeter=0;" parent="2M9a11WU54mTgExnEKtL-1" source="fM0GSQkkwfbI1YpquLyl-2" target="fM0GSQkkwfbI1YpquLyl-5" edge="1">
          <mxGeometry width="80" relative="1" as="geometry">
            <mxPoint x="160" y="620" as="sourcePoint" />
            <mxPoint x="240" y="620" as="targetPoint" />
          </mxGeometry>
        </mxCell>
        <mxCell id="fM0GSQkkwfbI1YpquLyl-17" value="[hay productos]" style="text;html=1;align=center;verticalAlign=middle;resizable=0;points=[];autosize=1;" parent="2M9a11WU54mTgExnEKtL-1" vertex="1">
          <mxGeometry x="95" y="250" width="100" height="20" as="geometry" />
        </mxCell>
        <mxCell id="fM0GSQkkwfbI1YpquLyl-18" value="[no hay productos]" style="text;html=1;align=center;verticalAlign=middle;resizable=0;points=[];autosize=1;" parent="2M9a11WU54mTgExnEKtL-1" vertex="1">
          <mxGeometry x="100" y="368" width="110" height="20" as="geometry" />
        </mxCell>
        <mxCell id="fM0GSQkkwfbI1YpquLyl-19" value="" style="line;strokeWidth=1;fillColor=none;align=left;verticalAlign=middle;spacingTop=-1;spacingLeft=3;spacingRight=3;rotatable=0;labelPosition=right;points=[];portConstraint=eastwest;dashed=1;" parent="2M9a11WU54mTgExnEKtL-1" vertex="1">
          <mxGeometry x="95" y="360" width="365" height="8" as="geometry" />
        </mxCell>
        <mxCell id="fM0GSQkkwfbI1YpquLyl-20" value="noProductos" style="html=1;verticalAlign=bottom;endArrow=open;dashed=1;endSize=8;entryX=1.4;entryY=0.861;entryDx=0;entryDy=0;entryPerimeter=0;exitX=0;exitY=0.989;exitDx=0;exitDy=0;exitPerimeter=0;" parent="2M9a11WU54mTgExnEKtL-1" source="fM0GSQkkwfbI1YpquLyl-5" target="fM0GSQkkwfbI1YpquLyl-3" edge="1">
          <mxGeometry relative="1" as="geometry">
            <mxPoint x="375" y="380" as="sourcePoint" />
            <mxPoint x="230" y="510" as="targetPoint" />
          </mxGeometry>
        </mxCell>
        <mxCell id="fM0GSQkkwfbI1YpquLyl-21" value="[para cada &lt;br&gt;producto]" style="text;html=1;align=center;verticalAlign=middle;resizable=0;points=[];autosize=1;" parent="2M9a11WU54mTgExnEKtL-1" vertex="1">
          <mxGeometry x="140" y="297.5" width="70" height="30" as="geometry" />
        </mxCell>
        <mxCell id="fM0GSQkkwfbI1YpquLyl-22" value="mostrarDatosProducto()" style="html=1;verticalAlign=bottom;endArrow=block;exitX=-0.3;exitY=0.648;exitDx=0;exitDy=0;exitPerimeter=0;" parent="2M9a11WU54mTgExnEKtL-1" source="fM0GSQkkwfbI1YpquLyl-5" target="fM0GSQkkwfbI1YpquLyl-3" edge="1">
          <mxGeometry x="-0.0667" width="80" relative="1" as="geometry">
            <mxPoint x="110" y="620" as="sourcePoint" />
            <mxPoint x="220" y="390" as="targetPoint" />
            <mxPoint x="-1" as="offset" />
          </mxGeometry>
        </mxCell>
        <mxCell id="Nh_MIiayk0pr2uVWsqUl-0" value="ref" style="shape=umlFrame;whiteSpace=wrap;html=1;width=60;height=20;" parent="2M9a11WU54mTgExnEKtL-1" vertex="1">
          <mxGeometry x="300" y="165" width="290" height="55" as="geometry" />
        </mxCell>
        <mxCell id="Nh_MIiayk0pr2uVWsqUl-2" value="RecuperarInfoProductos():productos" style="text;html=1;align=center;verticalAlign=middle;resizable=0;points=[];autosize=1;" parent="2M9a11WU54mTgExnEKtL-1" vertex="1">
          <mxGeometry x="380" y="180" width="210" height="20" as="geometry" />
        </mxCell>
      </root>
    </mxGraphModel>
  </diagram>
  <diagram id="uRDI6iDCV5Zr8pnU6gch" name="D.Secuencia CU002">
    <mxGraphModel dx="878" dy="435" grid="1" gridSize="10" guides="1" tooltips="1" connect="1" arrows="1" fold="1" page="1" pageScale="1" pageWidth="827" pageHeight="1169" math="0" shadow="0">
      <root>
        <mxCell id="s2asfqjaZn6FTztq8lzK-0" />
        <mxCell id="s2asfqjaZn6FTztq8lzK-1" parent="s2asfqjaZn6FTztq8lzK-0" />
        <mxCell id="S70UI0-glejD0fxq_VNP-0" value="loop" style="shape=umlFrame;whiteSpace=wrap;html=1;width=60;height=20;fillColor=#0050ef;strokeColor=#001DBC;fontColor=#ffffff;" parent="s2asfqjaZn6FTztq8lzK-1" vertex="1">
          <mxGeometry x="90" y="140" width="740" height="470" as="geometry" />
        </mxCell>
        <mxCell id="S70UI0-glejD0fxq_VNP-4" value=":NuevoProducto" style="shape=umlLifeline;participant=umlBoundary;perimeter=lifelinePerimeter;whiteSpace=wrap;html=1;container=1;collapsible=0;recursiveResize=0;verticalAlign=top;spacingTop=36;labelBackgroundColor=#ffffff;outlineConnect=0;" parent="s2asfqjaZn6FTztq8lzK-1" vertex="1">
          <mxGeometry x="350" y="40" width="50" height="600" as="geometry" />
        </mxCell>
        <mxCell id="XRF5tzdER3aWOR9Rdjkl-4" value="alt" style="shape=umlFrame;whiteSpace=wrap;html=1;width=60;height=20;fillColor=#d80073;strokeColor=#A50040;fontColor=#ffffff;" parent="S70UI0-glejD0fxq_VNP-4" vertex="1">
          <mxGeometry x="-250" y="240" width="710" height="310" as="geometry" />
        </mxCell>
        <mxCell id="XRF5tzdER3aWOR9Rdjkl-8" value="alt" style="shape=umlFrame;whiteSpace=wrap;html=1;width=70;height=15;fillColor=#008a00;strokeColor=#005700;fontColor=#ffffff;" parent="S70UI0-glejD0fxq_VNP-4" vertex="1">
          <mxGeometry x="-220" y="320" width="670" height="170" as="geometry" />
        </mxCell>
        <mxCell id="S70UI0-glejD0fxq_VNP-5" value="" style="html=1;points=[];perimeter=orthogonalPerimeter;" parent="S70UI0-glejD0fxq_VNP-4" vertex="1">
          <mxGeometry x="15" y="80" width="20" height="460" as="geometry" />
        </mxCell>
        <mxCell id="XRF5tzdER3aWOR9Rdjkl-14" value="productoExistente" style="html=1;verticalAlign=bottom;endArrow=open;dashed=1;endSize=8;" parent="S70UI0-glejD0fxq_VNP-4" edge="1">
          <mxGeometry relative="1" as="geometry">
            <mxPoint x="15" y="340" as="sourcePoint" />
            <mxPoint x="-126" y="340" as="targetPoint" />
          </mxGeometry>
        </mxCell>
        <mxCell id="XRF5tzdER3aWOR9Rdjkl-9" value="[prod existe]" style="text;html=1;align=center;verticalAlign=middle;resizable=0;points=[];autosize=1;fillColor=#008a00;strokeColor=#005700;fontColor=#ffffff;" parent="S70UI0-glejD0fxq_VNP-4" vertex="1">
          <mxGeometry x="-220" y="340" width="80" height="20" as="geometry" />
        </mxCell>
        <mxCell id="XRF5tzdER3aWOR9Rdjkl-18" value=":Producto" style="shape=umlLifeline;participant=umlControl;perimeter=lifelinePerimeter;whiteSpace=wrap;html=1;container=1;collapsible=0;recursiveResize=0;verticalAlign=top;spacingTop=36;labelBackgroundColor=#ffffff;outlineConnect=0;" parent="S70UI0-glejD0fxq_VNP-4" vertex="1">
          <mxGeometry x="330" y="360" width="40" height="240" as="geometry" />
        </mxCell>
        <mxCell id="XRF5tzdER3aWOR9Rdjkl-21" value="" style="html=1;points=[];perimeter=orthogonalPerimeter;" parent="XRF5tzdER3aWOR9Rdjkl-18" vertex="1">
          <mxGeometry x="15" y="70" width="10" height="40" as="geometry" />
        </mxCell>
        <mxCell id="p7qPgaHbBnm841rJ7pd7-0" value="return" style="html=1;verticalAlign=bottom;endArrow=open;dashed=1;endSize=8;exitX=0.083;exitY=1.022;exitDx=0;exitDy=0;exitPerimeter=0;entryX=1;entryY=0.82;entryDx=0;entryDy=0;entryPerimeter=0;" edge="1" parent="XRF5tzdER3aWOR9Rdjkl-18">
          <mxGeometry relative="1" as="geometry">
            <mxPoint x="95" y="100" as="sourcePoint" />
            <mxPoint x="25" y="101" as="targetPoint" />
          </mxGeometry>
        </mxCell>
        <mxCell id="XRF5tzdER3aWOR9Rdjkl-12" value="" style="line;strokeWidth=2;fillColor=#008a00;align=left;verticalAlign=middle;spacingTop=-1;spacingLeft=3;spacingRight=3;rotatable=0;labelPosition=right;points=[];portConstraint=eastwest;dashed=1;strokeColor=#005700;fontColor=#ffffff;" parent="S70UI0-glejD0fxq_VNP-4" vertex="1">
          <mxGeometry x="-220" y="360" width="670" height="8" as="geometry" />
        </mxCell>
        <mxCell id="XRF5tzdER3aWOR9Rdjkl-7" value="" style="line;strokeWidth=2;fillColor=#d80073;align=left;verticalAlign=middle;spacingTop=-1;spacingLeft=3;spacingRight=3;rotatable=0;labelPosition=right;points=[];portConstraint=eastwest;dashed=1;strokeColor=#A50040;fontColor=#ffffff;" parent="S70UI0-glejD0fxq_VNP-4" vertex="1">
          <mxGeometry x="-250" y="500" width="710" height="8" as="geometry" />
        </mxCell>
        <mxCell id="XRF5tzdER3aWOR9Rdjkl-6" value="[datos no vÃ¡lidos]" style="text;html=1;align=center;verticalAlign=middle;resizable=0;points=[];autosize=1;fillColor=#d80073;strokeColor=#A50040;fontColor=#ffffff;" parent="S70UI0-glejD0fxq_VNP-4" vertex="1">
          <mxGeometry x="-250" y="508" width="110" height="20" as="geometry" />
        </mxCell>
        <mxCell id="S70UI0-glejD0fxq_VNP-2" value="cliente" style="shape=umlLifeline;participant=umlActor;perimeter=lifelinePerimeter;whiteSpace=wrap;html=1;container=1;collapsible=0;recursiveResize=0;verticalAlign=top;spacingTop=36;labelBackgroundColor=#ffffff;outlineConnect=0;" parent="s2asfqjaZn6FTztq8lzK-1" vertex="1">
          <mxGeometry x="210" y="40" width="20" height="600" as="geometry" />
        </mxCell>
        <mxCell id="S70UI0-glejD0fxq_VNP-3" value="" style="html=1;points=[];perimeter=orthogonalPerimeter;" parent="S70UI0-glejD0fxq_VNP-2" vertex="1">
          <mxGeometry x="5" y="80" width="10" height="480" as="geometry" />
        </mxCell>
        <mxCell id="p7qPgaHbBnm841rJ7pd7-3" value="return" style="html=1;verticalAlign=bottom;endArrow=open;dashed=1;endSize=8;exitX=0.2;exitY=0.917;exitDx=0;exitDy=0;exitPerimeter=0;" edge="1" parent="S70UI0-glejD0fxq_VNP-2">
          <mxGeometry relative="1" as="geometry">
            <mxPoint x="155" y="480.5" as="sourcePoint" />
            <mxPoint x="20" y="480" as="targetPoint" />
          </mxGeometry>
        </mxCell>
        <mxCell id="S70UI0-glejD0fxq_VNP-6" value=":DatosProductos" style="shape=umlLifeline;participant=umlEntity;perimeter=lifelinePerimeter;whiteSpace=wrap;html=1;container=1;collapsible=0;recursiveResize=0;verticalAlign=top;spacingTop=36;labelBackgroundColor=#ffffff;outlineConnect=0;" parent="s2asfqjaZn6FTztq8lzK-1" vertex="1">
          <mxGeometry x="760" y="40" width="40" height="600" as="geometry" />
        </mxCell>
        <mxCell id="S70UI0-glejD0fxq_VNP-7" value="" style="html=1;points=[];perimeter=orthogonalPerimeter;" parent="S70UI0-glejD0fxq_VNP-6" vertex="1">
          <mxGeometry x="15" y="267.5" width="10" height="25" as="geometry" />
        </mxCell>
        <mxCell id="XRF5tzdER3aWOR9Rdjkl-17" value="" style="html=1;points=[];perimeter=orthogonalPerimeter;" parent="S70UI0-glejD0fxq_VNP-6" vertex="1">
          <mxGeometry x="15" y="440" width="10" height="30" as="geometry" />
        </mxCell>
        <mxCell id="S70UI0-glejD0fxq_VNP-8" value=":GestionProductos" style="shape=umlLifeline;participant=umlControl;perimeter=lifelinePerimeter;whiteSpace=wrap;html=1;container=1;collapsible=0;recursiveResize=0;verticalAlign=top;spacingTop=36;labelBackgroundColor=#ffffff;outlineConnect=0;" parent="s2asfqjaZn6FTztq8lzK-1" vertex="1">
          <mxGeometry x="560" y="40" width="40" height="590" as="geometry" />
        </mxCell>
        <mxCell id="S70UI0-glejD0fxq_VNP-9" value="" style="html=1;points=[];perimeter=orthogonalPerimeter;" parent="S70UI0-glejD0fxq_VNP-8" vertex="1">
          <mxGeometry x="15" y="260" width="10" height="50" as="geometry" />
        </mxCell>
        <mxCell id="XRF5tzdER3aWOR9Rdjkl-16" value="" style="html=1;points=[];perimeter=orthogonalPerimeter;" parent="S70UI0-glejD0fxq_VNP-8" vertex="1">
          <mxGeometry x="15" y="370" width="10" height="120" as="geometry" />
        </mxCell>
        <mxCell id="S70UI0-glejD0fxq_VNP-10" value="nuevoProducto()" style="html=1;verticalAlign=bottom;endArrow=block;entryX=0.094;entryY=0.003;entryDx=0;entryDy=0;entryPerimeter=0;" parent="s2asfqjaZn6FTztq8lzK-1" source="S70UI0-glejD0fxq_VNP-2" target="S70UI0-glejD0fxq_VNP-5" edge="1">
          <mxGeometry width="80" relative="1" as="geometry">
            <mxPoint x="160" y="620" as="sourcePoint" />
            <mxPoint x="240" y="620" as="targetPoint" />
          </mxGeometry>
        </mxCell>
        <mxCell id="S70UI0-glejD0fxq_VNP-11" value="datosProducto()" style="html=1;verticalAlign=bottom;endArrow=block;entryX=0.5;entryY=0.083;entryDx=0;entryDy=0;entryPerimeter=0;" parent="s2asfqjaZn6FTztq8lzK-1" source="S70UI0-glejD0fxq_VNP-5" target="S70UI0-glejD0fxq_VNP-3" edge="1">
          <mxGeometry width="80" relative="1" as="geometry">
            <mxPoint x="160" y="620" as="sourcePoint" />
            <mxPoint x="240" y="620" as="targetPoint" />
          </mxGeometry>
        </mxCell>
        <mxCell id="S70UI0-glejD0fxq_VNP-12" value="datos" style="html=1;verticalAlign=bottom;endArrow=open;dashed=1;endSize=8;entryX=0.02;entryY=0.163;entryDx=0;entryDy=0;entryPerimeter=0;" parent="s2asfqjaZn6FTztq8lzK-1" source="S70UI0-glejD0fxq_VNP-3" target="S70UI0-glejD0fxq_VNP-5" edge="1">
          <mxGeometry relative="1" as="geometry">
            <mxPoint x="240" y="620" as="sourcePoint" />
            <mxPoint x="160" y="620" as="targetPoint" />
          </mxGeometry>
        </mxCell>
        <mxCell id="S70UI0-glejD0fxq_VNP-13" value="comprobarAlta(datos)" style="html=1;verticalAlign=bottom;endArrow=block;entryX=0.418;entryY=0.024;entryDx=0;entryDy=0;entryPerimeter=0;" parent="s2asfqjaZn6FTztq8lzK-1" source="S70UI0-glejD0fxq_VNP-5" target="S70UI0-glejD0fxq_VNP-9" edge="1">
          <mxGeometry width="80" relative="1" as="geometry">
            <mxPoint x="380.0035294117647" y="210" as="sourcePoint" />
            <mxPoint x="571.6200000000001" y="210.00000000000006" as="targetPoint" />
          </mxGeometry>
        </mxCell>
        <mxCell id="S70UI0-glejD0fxq_VNP-14" value="comprobarAlta(datos)" style="html=1;verticalAlign=bottom;endArrow=block;entryX=0.182;entryY=0.003;entryDx=0;entryDy=0;entryPerimeter=0;" parent="s2asfqjaZn6FTztq8lzK-1" source="S70UI0-glejD0fxq_VNP-9" target="S70UI0-glejD0fxq_VNP-7" edge="1">
          <mxGeometry width="80" relative="1" as="geometry">
            <mxPoint x="590" y="220" as="sourcePoint" />
            <mxPoint x="770" y="222" as="targetPoint" />
          </mxGeometry>
        </mxCell>
        <mxCell id="S70UI0-glejD0fxq_VNP-15" value="existe" style="html=1;verticalAlign=bottom;endArrow=open;dashed=1;endSize=8;exitX=0.083;exitY=1.022;exitDx=0;exitDy=0;exitPerimeter=0;" parent="s2asfqjaZn6FTztq8lzK-1" source="S70UI0-glejD0fxq_VNP-7" target="S70UI0-glejD0fxq_VNP-9" edge="1">
          <mxGeometry relative="1" as="geometry">
            <mxPoint x="780" y="280" as="sourcePoint" />
            <mxPoint x="590" y="280" as="targetPoint" />
          </mxGeometry>
        </mxCell>
        <mxCell id="S70UI0-glejD0fxq_VNP-16" value="existe" style="html=1;verticalAlign=bottom;endArrow=open;dashed=1;endSize=8;exitX=0.167;exitY=1.006;exitDx=0;exitDy=0;exitPerimeter=0;entryX=1;entryY=0.496;entryDx=0;entryDy=0;entryPerimeter=0;" parent="s2asfqjaZn6FTztq8lzK-1" source="S70UI0-glejD0fxq_VNP-9" target="S70UI0-glejD0fxq_VNP-5" edge="1">
          <mxGeometry relative="1" as="geometry">
            <mxPoint x="580" y="290" as="sourcePoint" />
            <mxPoint x="390" y="360" as="targetPoint" />
          </mxGeometry>
        </mxCell>
        <mxCell id="XRF5tzdER3aWOR9Rdjkl-0" value="[para cada &lt;br&gt;producto]" style="text;html=1;align=center;verticalAlign=middle;resizable=0;points=[];autosize=1;fillColor=#0050ef;strokeColor=#001DBC;fontColor=#ffffff;" parent="s2asfqjaZn6FTztq8lzK-1" vertex="1">
          <mxGeometry x="110" y="170" width="70" height="30" as="geometry" />
        </mxCell>
        <mxCell id="XRF5tzdER3aWOR9Rdjkl-1" value="" style="html=1;points=[];perimeter=orthogonalPerimeter;" parent="s2asfqjaZn6FTztq8lzK-1" vertex="1">
          <mxGeometry x="380" y="220" width="20" height="30" as="geometry" />
        </mxCell>
        <mxCell id="XRF5tzdER3aWOR9Rdjkl-3" value="validarDatos()" style="html=1;verticalAlign=bottom;endArrow=block;edgeStyle=orthogonalEdgeStyle;curved=1;entryX=0.97;entryY=0.033;entryDx=0;entryDy=0;entryPerimeter=0;" parent="s2asfqjaZn6FTztq8lzK-1" target="XRF5tzdER3aWOR9Rdjkl-1" edge="1">
          <mxGeometry width="80" relative="1" as="geometry">
            <mxPoint x="385" y="210" as="sourcePoint" />
            <mxPoint x="400" y="240" as="targetPoint" />
            <Array as="points">
              <mxPoint x="385" y="200" />
              <mxPoint x="440" y="200" />
              <mxPoint x="440" y="221" />
            </Array>
          </mxGeometry>
        </mxCell>
        <mxCell id="XRF5tzdER3aWOR9Rdjkl-5" value="[datos vÃ¡lidos]" style="text;html=1;align=center;verticalAlign=middle;resizable=0;points=[];autosize=1;fillColor=#d80073;strokeColor=#A50040;fontColor=#ffffff;" parent="s2asfqjaZn6FTztq8lzK-1" vertex="1">
          <mxGeometry x="110" y="300" width="90" height="20" as="geometry" />
        </mxCell>
        <mxCell id="XRF5tzdER3aWOR9Rdjkl-19" value="nuevoProducto(datos)" style="html=1;verticalAlign=bottom;endArrow=block;entryX=0.5;entryY=0.017;entryDx=0;entryDy=0;entryPerimeter=0;" parent="s2asfqjaZn6FTztq8lzK-1" target="XRF5tzdER3aWOR9Rdjkl-16" edge="1">
          <mxGeometry x="-0.0204" y="-9" width="80" relative="1" as="geometry">
            <mxPoint x="384" y="411" as="sourcePoint" />
            <mxPoint x="560" y="430" as="targetPoint" />
            <mxPoint as="offset" />
          </mxGeometry>
        </mxCell>
        <mxCell id="XRF5tzdER3aWOR9Rdjkl-20" value="nuevo(datos)" style="html=1;verticalAlign=bottom;endArrow=block;" parent="s2asfqjaZn6FTztq8lzK-1" edge="1">
          <mxGeometry width="80" relative="1" as="geometry">
            <mxPoint x="586" y="430" as="sourcePoint" />
            <mxPoint x="690" y="430" as="targetPoint" />
          </mxGeometry>
        </mxCell>
        <mxCell id="S70UI0-glejD0fxq_VNP-20" value="datosNoValidos" style="html=1;verticalAlign=bottom;endArrow=open;dashed=1;endSize=8;" parent="s2asfqjaZn6FTztq8lzK-1" edge="1">
          <mxGeometry relative="1" as="geometry">
            <mxPoint x="365" y="570" as="sourcePoint" />
            <mxPoint x="224" y="570" as="targetPoint" />
          </mxGeometry>
        </mxCell>
        <mxCell id="XRF5tzdER3aWOR9Rdjkl-10" value="[no existe]" style="text;html=1;align=center;verticalAlign=middle;resizable=0;points=[];autosize=1;fillColor=#008a00;strokeColor=#005700;fontColor=#ffffff;" parent="s2asfqjaZn6FTztq8lzK-1" vertex="1">
          <mxGeometry x="130" y="410" width="70" height="20" as="geometry" />
        </mxCell>
        <mxCell id="XRF5tzdER3aWOR9Rdjkl-22" value="guardarProducto()" style="html=1;verticalAlign=bottom;endArrow=block;entryX=0.1;entryY=0.018;entryDx=0;entryDy=0;entryPerimeter=0;" parent="s2asfqjaZn6FTztq8lzK-1" source="XRF5tzdER3aWOR9Rdjkl-16" target="XRF5tzdER3aWOR9Rdjkl-21" edge="1">
          <mxGeometry width="80" relative="1" as="geometry">
            <mxPoint x="590" y="470" as="sourcePoint" />
            <mxPoint x="694" y="470" as="targetPoint" />
          </mxGeometry>
        </mxCell>
        <mxCell id="XRF5tzdER3aWOR9Rdjkl-23" value="guardar()" style="html=1;verticalAlign=bottom;endArrow=block;entryX=0;entryY=0.01;entryDx=0;entryDy=0;entryPerimeter=0;exitX=1.01;exitY=0.194;exitDx=0;exitDy=0;exitPerimeter=0;" parent="s2asfqjaZn6FTztq8lzK-1" source="XRF5tzdER3aWOR9Rdjkl-21" target="XRF5tzdER3aWOR9Rdjkl-17" edge="1">
          <mxGeometry width="80" relative="1" as="geometry">
            <mxPoint x="710" y="480" as="sourcePoint" />
            <mxPoint x="771" y="479.99800000000005" as="targetPoint" />
          </mxGeometry>
        </mxCell>
        <mxCell id="p7qPgaHbBnm841rJ7pd7-1" value="return" style="html=1;verticalAlign=bottom;endArrow=open;dashed=1;endSize=8;exitX=0.083;exitY=1.022;exitDx=0;exitDy=0;exitPerimeter=0;entryX=1;entryY=0.917;entryDx=0;entryDy=0;entryPerimeter=0;" edge="1" parent="s2asfqjaZn6FTztq8lzK-1">
          <mxGeometry relative="1" as="geometry">
            <mxPoint x="695" y="510" as="sourcePoint" />
            <mxPoint x="590" y="510.53999999999996" as="targetPoint" />
          </mxGeometry>
        </mxCell>
        <mxCell id="p7qPgaHbBnm841rJ7pd7-2" value="return" style="html=1;verticalAlign=bottom;endArrow=open;dashed=1;endSize=8;exitX=0.2;exitY=0.917;exitDx=0;exitDy=0;exitPerimeter=0;entryX=1;entryY=0.867;entryDx=0;entryDy=0;entryPerimeter=0;" edge="1" parent="s2asfqjaZn6FTztq8lzK-1" source="XRF5tzdER3aWOR9Rdjkl-16" target="S70UI0-glejD0fxq_VNP-5">
          <mxGeometry relative="1" as="geometry">
            <mxPoint x="555" y="519.5" as="sourcePoint" />
            <mxPoint x="450" y="520" as="targetPoint" />
          </mxGeometry>
        </mxCell>
      </root>
    </mxGraphModel>
  </diagram>
  <diagram id="p6I9AAlzcdYqrOeg3Spx" name="D.Secuencia CU003">
    <mxGraphModel dx="2674" dy="803" grid="1" gridSize="10" guides="1" tooltips="1" connect="1" arrows="1" fold="1" page="1" pageScale="1" pageWidth="827" pageHeight="1169" math="0" shadow="0">
      <root>
        <mxCell id="TOJOuSTWwBS5npJA74XZ-0" />
        <mxCell id="TOJOuSTWwBS5npJA74XZ-1" parent="TOJOuSTWwBS5npJA74XZ-0" />
        <mxCell id="cGzvJtRdP0Fl5jrl48Lq-15" value="opt" style="shape=umlFrame;whiteSpace=wrap;html=1;fillColor=#e3c800;strokeColor=#B09500;fontColor=#ffffff;" vertex="1" parent="TOJOuSTWwBS5npJA74XZ-1">
          <mxGeometry x="-110" y="485" width="1160" height="485" as="geometry" />
        </mxCell>
        <mxCell id="cGzvJtRdP0Fl5jrl48Lq-5" value="opt" style="shape=umlFrame;whiteSpace=wrap;html=1;fillColor=#e51400;strokeColor=#B20000;fontColor=#ffffff;" vertex="1" parent="TOJOuSTWwBS5npJA74XZ-1">
          <mxGeometry x="130" y="740" width="830" height="190" as="geometry" />
        </mxCell>
        <mxCell id="hvubTdL2LXTLM3brnTXg-28" value="opt" style="shape=umlFrame;whiteSpace=wrap;html=1;width=70;height=15;fillColor=#008a00;strokeColor=#005700;fontColor=#ffffff;" parent="TOJOuSTWwBS5npJA74XZ-1" vertex="1">
          <mxGeometry x="-100" y="570" width="1080" height="380" as="geometry" />
        </mxCell>
        <mxCell id="hvubTdL2LXTLM3brnTXg-6" value="loop" style="shape=umlFrame;whiteSpace=wrap;html=1;width=50;height=15;fillColor=#0050ef;strokeColor=#001DBC;fontColor=#ffffff;" parent="TOJOuSTWwBS5npJA74XZ-1" vertex="1">
          <mxGeometry x="-160" y="230" width="1320" height="180" as="geometry" />
        </mxCell>
        <mxCell id="hvubTdL2LXTLM3brnTXg-11" value="alt" style="shape=umlFrame;whiteSpace=wrap;html=1;width=60;height=20;fillColor=#d80073;strokeColor=#A50040;fontColor=#ffffff;" parent="TOJOuSTWwBS5npJA74XZ-1" vertex="1">
          <mxGeometry x="-150" y="310" width="720" height="90" as="geometry" />
        </mxCell>
        <mxCell id="lROJfeRpXxGFkvdSh1UE-0" value="Usuario" style="shape=umlLifeline;participant=umlActor;perimeter=lifelinePerimeter;whiteSpace=wrap;html=1;container=1;collapsible=0;recursiveResize=0;verticalAlign=top;spacingTop=36;labelBackgroundColor=#ffffff;outlineConnect=0;" parent="TOJOuSTWwBS5npJA74XZ-1" vertex="1">
          <mxGeometry x="50" y="40" width="20" height="1000" as="geometry" />
        </mxCell>
        <mxCell id="lROJfeRpXxGFkvdSh1UE-2" value="" style="html=1;points=[];perimeter=orthogonalPerimeter;" parent="lROJfeRpXxGFkvdSh1UE-0" vertex="1">
          <mxGeometry x="5" y="80" width="10" height="900" as="geometry" />
        </mxCell>
        <mxCell id="lROJfeRpXxGFkvdSh1UE-1" value=":RealizarCompra" style="shape=umlLifeline;participant=umlBoundary;perimeter=lifelinePerimeter;whiteSpace=wrap;html=1;container=1;collapsible=0;recursiveResize=0;verticalAlign=top;spacingTop=36;labelBackgroundColor=#ffffff;outlineConnect=0;" parent="TOJOuSTWwBS5npJA74XZ-1" vertex="1">
          <mxGeometry x="270" y="50" width="50" height="990" as="geometry" />
        </mxCell>
        <mxCell id="lROJfeRpXxGFkvdSh1UE-3" value="" style="html=1;points=[];perimeter=orthogonalPerimeter;" parent="lROJfeRpXxGFkvdSh1UE-1" vertex="1">
          <mxGeometry x="20" y="100" width="10" height="860" as="geometry" />
        </mxCell>
        <mxCell id="lROJfeRpXxGFkvdSh1UE-4" value="realizarCompra()" style="html=1;verticalAlign=bottom;endArrow=block;entryX=0.135;entryY=0.002;entryDx=0;entryDy=0;entryPerimeter=0;" parent="TOJOuSTWwBS5npJA74XZ-1" source="lROJfeRpXxGFkvdSh1UE-2" target="lROJfeRpXxGFkvdSh1UE-3" edge="1">
          <mxGeometry x="0.1393" y="10" width="80" relative="1" as="geometry">
            <mxPoint x="40" y="940" as="sourcePoint" />
            <mxPoint x="120" y="940" as="targetPoint" />
            <mxPoint x="1" as="offset" />
          </mxGeometry>
        </mxCell>
        <mxCell id="lROJfeRpXxGFkvdSh1UE-5" value="ref" style="shape=umlFrame;whiteSpace=wrap;html=1;width=60;height=20;" parent="TOJOuSTWwBS5npJA74XZ-1" vertex="1">
          <mxGeometry x="200" y="160" width="310" height="40" as="geometry" />
        </mxCell>
        <mxCell id="hvubTdL2LXTLM3brnTXg-3" value="RecuperarInfoProductos():productos" style="text;html=1;" parent="TOJOuSTWwBS5npJA74XZ-1" vertex="1">
          <mxGeometry x="302.71000000000004" y="165" width="220" height="30" as="geometry" />
        </mxCell>
        <mxCell id="hvubTdL2LXTLM3brnTXg-5" value="mostrarProductos()" style="html=1;verticalAlign=bottom;endArrow=block;exitX=0.2;exitY=0.08;exitDx=0;exitDy=0;exitPerimeter=0;entryX=1;entryY=0.11;entryDx=0;entryDy=0;entryPerimeter=0;" parent="TOJOuSTWwBS5npJA74XZ-1" source="lROJfeRpXxGFkvdSh1UE-3" target="lROJfeRpXxGFkvdSh1UE-2" edge="1">
          <mxGeometry x="-0.1284" width="80" relative="1" as="geometry">
            <mxPoint x="75" y="160.05000000000007" as="sourcePoint" />
            <mxPoint x="302.10000000000014" y="160.05000000000007" as="targetPoint" />
            <mxPoint as="offset" />
          </mxGeometry>
        </mxCell>
        <mxCell id="hvubTdL2LXTLM3brnTXg-7" value="[finDeCompra false]" style="text;html=1;align=center;verticalAlign=middle;resizable=0;points=[];autosize=1;fillColor=#0050ef;strokeColor=#001DBC;fontColor=#ffffff;" parent="TOJOuSTWwBS5npJA74XZ-1" vertex="1">
          <mxGeometry x="-150" y="250" width="120" height="20" as="geometry" />
        </mxCell>
        <mxCell id="hvubTdL2LXTLM3brnTXg-8" value="datosProducto" style="html=1;verticalAlign=bottom;endArrow=open;dashed=1;endSize=8;exitX=1.1;exitY=0.156;exitDx=0;exitDy=0;exitPerimeter=0;" parent="TOJOuSTWwBS5npJA74XZ-1" source="lROJfeRpXxGFkvdSh1UE-2" target="lROJfeRpXxGFkvdSh1UE-3" edge="1">
          <mxGeometry relative="1" as="geometry">
            <mxPoint x="210" y="370" as="sourcePoint" />
            <mxPoint x="130" y="370" as="targetPoint" />
          </mxGeometry>
        </mxCell>
        <mxCell id="hvubTdL2LXTLM3brnTXg-12" value="[hay existencias]" style="text;html=1;align=center;verticalAlign=middle;resizable=0;points=[];autosize=1;fillColor=#d80073;strokeColor=#A50040;fontColor=#ffffff;" parent="TOJOuSTWwBS5npJA74XZ-1" vertex="1">
          <mxGeometry x="-140" y="330" width="100" height="20" as="geometry" />
        </mxCell>
        <mxCell id="hvubTdL2LXTLM3brnTXg-14" value="datosTotales" style="html=1;verticalAlign=bottom;endArrow=open;dashed=1;endSize=8;" parent="TOJOuSTWwBS5npJA74XZ-1" edge="1">
          <mxGeometry relative="1" as="geometry">
            <mxPoint x="290" y="339.66" as="sourcePoint" />
            <mxPoint x="60" y="339.66" as="targetPoint" />
          </mxGeometry>
        </mxCell>
        <mxCell id="hvubTdL2LXTLM3brnTXg-15" value="noHayExistencias" style="html=1;verticalAlign=bottom;endArrow=open;dashed=1;endSize=8;exitX=0.107;exitY=0.278;exitDx=0;exitDy=0;exitPerimeter=0;" parent="TOJOuSTWwBS5npJA74XZ-1" edge="1" source="lROJfeRpXxGFkvdSh1UE-3">
          <mxGeometry relative="1" as="geometry">
            <mxPoint x="290" y="370" as="sourcePoint" />
            <mxPoint x="66" y="390" as="targetPoint" />
          </mxGeometry>
        </mxCell>
        <mxCell id="hvubTdL2LXTLM3brnTXg-16" value="" style="line;strokeWidth=2;fillColor=#d80073;align=left;verticalAlign=middle;spacingTop=-1;spacingLeft=3;spacingRight=3;rotatable=0;labelPosition=right;points=[];portConstraint=eastwest;dashed=1;strokeColor=#A50040;fontColor=#ffffff;" parent="TOJOuSTWwBS5npJA74XZ-1" vertex="1">
          <mxGeometry x="-150" y="350" width="720" height="8" as="geometry" />
        </mxCell>
        <mxCell id="hvubTdL2LXTLM3brnTXg-19" value="[no hay]" style="text;html=1;align=center;verticalAlign=middle;resizable=0;points=[];autosize=1;fillColor=#d80073;strokeColor=#A50040;fontColor=#ffffff;" parent="TOJOuSTWwBS5npJA74XZ-1" vertex="1">
          <mxGeometry x="-140" y="370" width="60" height="20" as="geometry" />
        </mxCell>
        <mxCell id="hvubTdL2LXTLM3brnTXg-26" value="confirmarImporte(importe)" style="html=1;verticalAlign=bottom;endArrow=block;entryX=1.124;entryY=0.444;entryDx=0;entryDy=0;entryPerimeter=0;exitX=-0.1;exitY=0.429;exitDx=0;exitDy=0;exitPerimeter=0;" parent="TOJOuSTWwBS5npJA74XZ-1" source="lROJfeRpXxGFkvdSh1UE-3" target="lROJfeRpXxGFkvdSh1UE-2" edge="1">
          <mxGeometry x="-0.2045" y="-1" width="80" relative="1" as="geometry">
            <mxPoint x="-70" y="1260" as="sourcePoint" />
            <mxPoint x="67" y="489" as="targetPoint" />
            <mxPoint as="offset" />
          </mxGeometry>
        </mxCell>
        <mxCell id="hvubTdL2LXTLM3brnTXg-29" value="[confirma compra]" style="text;html=1;align=center;verticalAlign=middle;resizable=0;points=[];autosize=1;fillColor=#008a00;strokeColor=#005700;fontColor=#ffffff;" parent="TOJOuSTWwBS5npJA74XZ-1" vertex="1">
          <mxGeometry x="-90" y="605" width="110" height="20" as="geometry" />
        </mxCell>
        <mxCell id="hvubTdL2LXTLM3brnTXg-32" value="confirmacion" style="html=1;verticalAlign=bottom;endArrow=open;dashed=1;endSize=8;exitX=1.055;exitY=0.478;exitDx=0;exitDy=0;exitPerimeter=0;" parent="TOJOuSTWwBS5npJA74XZ-1" source="lROJfeRpXxGFkvdSh1UE-2" edge="1" target="lROJfeRpXxGFkvdSh1UE-3">
          <mxGeometry relative="1" as="geometry">
            <mxPoint x="10" y="940" as="sourcePoint" />
            <mxPoint x="290" y="448" as="targetPoint" />
          </mxGeometry>
        </mxCell>
        <mxCell id="hvubTdL2LXTLM3brnTXg-33" value=":GestorCompra" style="shape=umlLifeline;participant=umlControl;perimeter=lifelinePerimeter;whiteSpace=wrap;html=1;container=1;collapsible=0;recursiveResize=0;verticalAlign=top;spacingTop=36;labelBackgroundColor=#ffffff;outlineConnect=0;" parent="TOJOuSTWwBS5npJA74XZ-1" vertex="1">
          <mxGeometry x="522.71" y="58" width="40" height="982" as="geometry" />
        </mxCell>
        <mxCell id="hvubTdL2LXTLM3brnTXg-63" value="" style="html=1;points=[];perimeter=orthogonalPerimeter;" parent="hvubTdL2LXTLM3brnTXg-33" vertex="1">
          <mxGeometry x="15" y="742" width="10" height="88" as="geometry" />
        </mxCell>
        <mxCell id="80eeIxpGLR83vVknB8Rj-2" value="" style="html=1;points=[];perimeter=orthogonalPerimeter;" vertex="1" parent="hvubTdL2LXTLM3brnTXg-33">
          <mxGeometry x="15" y="202" width="10" height="118" as="geometry" />
        </mxCell>
        <mxCell id="cGzvJtRdP0Fl5jrl48Lq-8" value="" style="html=1;points=[];perimeter=orthogonalPerimeter;" vertex="1" parent="hvubTdL2LXTLM3brnTXg-33">
          <mxGeometry x="15" y="620" width="10" height="53" as="geometry" />
        </mxCell>
        <mxCell id="cGzvJtRdP0Fl5jrl48Lq-12" value="" style="html=1;points=[];perimeter=orthogonalPerimeter;" vertex="1" parent="hvubTdL2LXTLM3brnTXg-33">
          <mxGeometry x="15" y="392" width="10" height="28" as="geometry" />
        </mxCell>
        <mxCell id="hvubTdL2LXTLM3brnTXg-56" value="formaPago()" style="html=1;verticalAlign=bottom;endArrow=block;entryX=0.917;entryY=0.533;entryDx=0;entryDy=0;entryPerimeter=0;" parent="TOJOuSTWwBS5npJA74XZ-1" edge="1" target="lROJfeRpXxGFkvdSh1UE-2" source="lROJfeRpXxGFkvdSh1UE-3">
          <mxGeometry width="80" relative="1" as="geometry">
            <mxPoint x="295" y="610" as="sourcePoint" />
            <mxPoint x="70" y="611" as="targetPoint" />
          </mxGeometry>
        </mxCell>
        <mxCell id="hvubTdL2LXTLM3brnTXg-57" value="forma" style="html=1;verticalAlign=bottom;endArrow=open;dashed=1;endSize=8;exitX=1.167;exitY=0.568;exitDx=0;exitDy=0;exitPerimeter=0;" parent="TOJOuSTWwBS5npJA74XZ-1" edge="1" source="lROJfeRpXxGFkvdSh1UE-2">
          <mxGeometry relative="1" as="geometry">
            <mxPoint x="70" y="630" as="sourcePoint" />
            <mxPoint x="290" y="630" as="targetPoint" />
          </mxGeometry>
        </mxCell>
        <mxCell id="hvubTdL2LXTLM3brnTXg-58" value="datosPago()" style="html=1;verticalAlign=bottom;endArrow=block;exitX=0.071;exitY=0.578;exitDx=0;exitDy=0;exitPerimeter=0;entryX=1;entryY=0.586;entryDx=0;entryDy=0;entryPerimeter=0;" parent="TOJOuSTWwBS5npJA74XZ-1" edge="1" target="lROJfeRpXxGFkvdSh1UE-2" source="lROJfeRpXxGFkvdSh1UE-3">
          <mxGeometry width="80" relative="1" as="geometry">
            <mxPoint x="295" y="649.29" as="sourcePoint" />
            <mxPoint x="70" y="650.29" as="targetPoint" />
          </mxGeometry>
        </mxCell>
        <mxCell id="hvubTdL2LXTLM3brnTXg-59" value="datosPago" style="html=1;verticalAlign=bottom;endArrow=open;dashed=1;endSize=8;exitX=1.143;exitY=0.613;exitDx=0;exitDy=0;exitPerimeter=0;" parent="TOJOuSTWwBS5npJA74XZ-1" edge="1" source="lROJfeRpXxGFkvdSh1UE-2">
          <mxGeometry relative="1" as="geometry">
            <mxPoint x="70" y="670" as="sourcePoint" />
            <mxPoint x="290" y="670" as="targetPoint" />
          </mxGeometry>
        </mxCell>
        <mxCell id="hvubTdL2LXTLM3brnTXg-62" value=":DatosCompra" style="shape=umlLifeline;participant=umlEntity;perimeter=lifelinePerimeter;whiteSpace=wrap;html=1;container=1;collapsible=0;recursiveResize=0;verticalAlign=top;spacingTop=36;labelBackgroundColor=#ffffff;outlineConnect=0;" parent="TOJOuSTWwBS5npJA74XZ-1" vertex="1">
          <mxGeometry x="880" y="60" width="40" height="980" as="geometry" />
        </mxCell>
        <mxCell id="hvubTdL2LXTLM3brnTXg-70" value="" style="html=1;points=[];perimeter=orthogonalPerimeter;" parent="hvubTdL2LXTLM3brnTXg-62" vertex="1">
          <mxGeometry x="15" y="790" width="10" height="20" as="geometry" />
        </mxCell>
        <mxCell id="hvubTdL2LXTLM3brnTXg-64" value="nuevaCompra(datosCompra)" style="html=1;verticalAlign=bottom;endArrow=block;entryX=0.017;entryY=0.001;entryDx=0;entryDy=0;entryPerimeter=0;exitX=1;exitY=0.757;exitDx=0;exitDy=0;exitPerimeter=0;" parent="TOJOuSTWwBS5npJA74XZ-1" edge="1" target="hvubTdL2LXTLM3brnTXg-63" source="lROJfeRpXxGFkvdSh1UE-3">
          <mxGeometry width="80" relative="1" as="geometry">
            <mxPoint x="303" y="840" as="sourcePoint" />
            <mxPoint x="540.71" y="840" as="targetPoint" />
          </mxGeometry>
        </mxCell>
        <mxCell id="hvubTdL2LXTLM3brnTXg-65" value=":Compra" style="shape=umlLifeline;participant=umlControl;perimeter=lifelinePerimeter;whiteSpace=wrap;html=1;container=1;collapsible=0;recursiveResize=0;verticalAlign=top;spacingTop=36;labelBackgroundColor=#ffffff;outlineConnect=0;" parent="TOJOuSTWwBS5npJA74XZ-1" vertex="1">
          <mxGeometry x="660" y="780" width="40" height="130" as="geometry" />
        </mxCell>
        <mxCell id="hvubTdL2LXTLM3brnTXg-66" value="" style="html=1;points=[];perimeter=orthogonalPerimeter;" parent="hvubTdL2LXTLM3brnTXg-65" vertex="1">
          <mxGeometry x="15" y="60" width="10" height="40" as="geometry" />
        </mxCell>
        <mxCell id="hvubTdL2LXTLM3brnTXg-67" value="nuevo(datosCompra)" style="html=1;verticalAlign=bottom;endArrow=block;exitX=0.9;exitY=0.232;exitDx=0;exitDy=0;exitPerimeter=0;" parent="TOJOuSTWwBS5npJA74XZ-1" edge="1" target="hvubTdL2LXTLM3brnTXg-65" source="hvubTdL2LXTLM3brnTXg-63">
          <mxGeometry x="-0.1561" width="80" relative="1" as="geometry">
            <mxPoint x="560" y="820" as="sourcePoint" />
            <mxPoint x="668.5" y="820" as="targetPoint" />
            <mxPoint as="offset" />
          </mxGeometry>
        </mxCell>
        <mxCell id="hvubTdL2LXTLM3brnTXg-69" value="guardar()" style="html=1;verticalAlign=bottom;endArrow=block;entryX=0.029;entryY=0.017;entryDx=0;entryDy=0;entryPerimeter=0;" parent="TOJOuSTWwBS5npJA74XZ-1" source="hvubTdL2LXTLM3brnTXg-63" target="hvubTdL2LXTLM3brnTXg-66" edge="1">
          <mxGeometry width="80" relative="1" as="geometry">
            <mxPoint x="560" y="870" as="sourcePoint" />
            <mxPoint x="668.5" y="870" as="targetPoint" />
            <Array as="points">
              <mxPoint x="620" y="840" />
            </Array>
          </mxGeometry>
        </mxCell>
        <mxCell id="hvubTdL2LXTLM3brnTXg-72" value="nuevaCompra(datosCompra)" style="html=1;verticalAlign=bottom;endArrow=block;entryX=0;entryY=0;entryDx=0;entryDy=0;entryPerimeter=0;" parent="TOJOuSTWwBS5npJA74XZ-1" source="hvubTdL2LXTLM3brnTXg-66" target="hvubTdL2LXTLM3brnTXg-70" edge="1">
          <mxGeometry width="80" relative="1" as="geometry">
            <mxPoint x="780" y="880.64" as="sourcePoint" />
            <mxPoint x="893" y="880.004" as="targetPoint" />
          </mxGeometry>
        </mxCell>
        <mxCell id="hvubTdL2LXTLM3brnTXg-73" value="return" style="html=1;verticalAlign=bottom;endArrow=open;dashed=1;endSize=8;exitX=0.4;exitY=0.975;exitDx=0;exitDy=0;exitPerimeter=0;" parent="TOJOuSTWwBS5npJA74XZ-1" source="hvubTdL2LXTLM3brnTXg-70" target="hvubTdL2LXTLM3brnTXg-66" edge="1">
          <mxGeometry relative="1" as="geometry">
            <mxPoint x="190" y="1020" as="sourcePoint" />
            <mxPoint x="110" y="1020" as="targetPoint" />
          </mxGeometry>
        </mxCell>
        <mxCell id="hvubTdL2LXTLM3brnTXg-74" value="return" style="html=1;verticalAlign=bottom;endArrow=open;dashed=1;endSize=8;exitX=0.2;exitY=1;exitDx=0;exitDy=0;exitPerimeter=0;entryX=0.9;entryY=0.907;entryDx=0;entryDy=0;entryPerimeter=0;" parent="TOJOuSTWwBS5npJA74XZ-1" source="hvubTdL2LXTLM3brnTXg-66" target="hvubTdL2LXTLM3brnTXg-63" edge="1">
          <mxGeometry relative="1" as="geometry">
            <mxPoint x="190" y="1020" as="sourcePoint" />
            <mxPoint x="110" y="1020" as="targetPoint" />
          </mxGeometry>
        </mxCell>
        <mxCell id="hvubTdL2LXTLM3brnTXg-75" value="return" style="html=1;verticalAlign=bottom;endArrow=open;dashed=1;endSize=8;exitX=0.429;exitY=0.988;exitDx=0;exitDy=0;exitPerimeter=0;" parent="TOJOuSTWwBS5npJA74XZ-1" source="hvubTdL2LXTLM3brnTXg-63" target="lROJfeRpXxGFkvdSh1UE-3" edge="1">
          <mxGeometry relative="1" as="geometry">
            <mxPoint x="190" y="1020" as="sourcePoint" />
            <mxPoint x="110" y="1020" as="targetPoint" />
          </mxGeometry>
        </mxCell>
        <mxCell id="hvubTdL2LXTLM3brnTXg-76" value="finProceso" style="html=1;verticalAlign=bottom;endArrow=open;dashed=1;endSize=8;entryX=1.072;entryY=0.986;entryDx=0;entryDy=0;entryPerimeter=0;exitX=0.038;exitY=0.998;exitDx=0;exitDy=0;exitPerimeter=0;" parent="TOJOuSTWwBS5npJA74XZ-1" source="lROJfeRpXxGFkvdSh1UE-3" target="lROJfeRpXxGFkvdSh1UE-2" edge="1">
          <mxGeometry relative="1" as="geometry">
            <mxPoint x="291" y="967" as="sourcePoint" />
            <mxPoint x="54" y="950" as="targetPoint" />
          </mxGeometry>
        </mxCell>
        <mxCell id="80eeIxpGLR83vVknB8Rj-0" value=":DatosProductos" style="shape=umlLifeline;participant=umlEntity;perimeter=lifelinePerimeter;whiteSpace=wrap;html=1;container=1;collapsible=0;recursiveResize=0;verticalAlign=top;spacingTop=36;outlineConnect=0;" vertex="1" parent="TOJOuSTWwBS5npJA74XZ-1">
          <mxGeometry x="1050" y="60" width="40" height="940" as="geometry" />
        </mxCell>
        <mxCell id="80eeIxpGLR83vVknB8Rj-3" value="" style="html=1;points=[];perimeter=orthogonalPerimeter;" vertex="1" parent="80eeIxpGLR83vVknB8Rj-0">
          <mxGeometry x="15" y="218" width="10" height="22" as="geometry" />
        </mxCell>
        <mxCell id="hvubTdL2LXTLM3brnTXg-10" value="validarDatos()" style="html=1;verticalAlign=bottom;endArrow=block;exitX=1.017;exitY=0.145;exitDx=0;exitDy=0;exitPerimeter=0;" parent="TOJOuSTWwBS5npJA74XZ-1" source="lROJfeRpXxGFkvdSh1UE-3" target="80eeIxpGLR83vVknB8Rj-2" edge="1">
          <mxGeometry width="80" relative="1" as="geometry">
            <mxPoint x="-70" y="940" as="sourcePoint" />
            <mxPoint x="310" y="270" as="targetPoint" />
          </mxGeometry>
        </mxCell>
        <mxCell id="80eeIxpGLR83vVknB8Rj-4" style="edgeStyle=none;rounded=0;orthogonalLoop=1;jettySize=auto;html=1;entryX=-0.1;entryY=0;entryDx=0;entryDy=0;entryPerimeter=0;" edge="1" parent="TOJOuSTWwBS5npJA74XZ-1" source="80eeIxpGLR83vVknB8Rj-2" target="80eeIxpGLR83vVknB8Rj-3">
          <mxGeometry relative="1" as="geometry" />
        </mxCell>
        <mxCell id="80eeIxpGLR83vVknB8Rj-6" value="validarDatos()" style="edgeLabel;html=1;align=center;verticalAlign=middle;resizable=0;points=[];" vertex="1" connectable="0" parent="80eeIxpGLR83vVknB8Rj-4">
          <mxGeometry x="-0.2086" y="1" relative="1" as="geometry">
            <mxPoint x="75.29" y="-7" as="offset" />
          </mxGeometry>
        </mxCell>
        <mxCell id="80eeIxpGLR83vVknB8Rj-7" style="rounded=0;orthogonalLoop=1;jettySize=auto;html=1;dashed=1;endArrow=openThin;endFill=0;" edge="1" parent="TOJOuSTWwBS5npJA74XZ-1" source="80eeIxpGLR83vVknB8Rj-3">
          <mxGeometry relative="1" as="geometry">
            <mxPoint x="548" y="300" as="targetPoint" />
          </mxGeometry>
        </mxCell>
        <mxCell id="80eeIxpGLR83vVknB8Rj-8" value="resultadoValidacion" style="edgeLabel;html=1;align=center;verticalAlign=middle;resizable=0;points=[];" vertex="1" connectable="0" parent="80eeIxpGLR83vVknB8Rj-7">
          <mxGeometry x="0.6944" y="-3" relative="1" as="geometry">
            <mxPoint x="43" y="-8" as="offset" />
          </mxGeometry>
        </mxCell>
        <mxCell id="80eeIxpGLR83vVknB8Rj-9" value="datosTotalesAcumular" style="html=1;verticalAlign=bottom;endArrow=open;dashed=1;endSize=8;entryX=0.934;entryY=0.214;entryDx=0;entryDy=0;entryPerimeter=0;" edge="1" parent="TOJOuSTWwBS5npJA74XZ-1" source="80eeIxpGLR83vVknB8Rj-2" target="lROJfeRpXxGFkvdSh1UE-3">
          <mxGeometry relative="1" as="geometry">
            <mxPoint x="300" y="340" as="sourcePoint" />
            <mxPoint x="302" y="322" as="targetPoint" />
          </mxGeometry>
        </mxCell>
        <mxCell id="80eeIxpGLR83vVknB8Rj-10" value="errorExistencias" style="html=1;verticalAlign=bottom;endArrow=open;dashed=1;endSize=8;entryX=1.21;entryY=0.261;entryDx=0;entryDy=0;entryPerimeter=0;exitX=0.095;exitY=0.974;exitDx=0;exitDy=0;exitPerimeter=0;" edge="1" parent="TOJOuSTWwBS5npJA74XZ-1" source="80eeIxpGLR83vVknB8Rj-2" target="lROJfeRpXxGFkvdSh1UE-3">
          <mxGeometry x="-0.0978" y="1" relative="1" as="geometry">
            <mxPoint x="548" y="330.03200000000004" as="sourcePoint" />
            <mxPoint x="312" y="331.72" as="targetPoint" />
            <mxPoint as="offset" />
          </mxGeometry>
        </mxCell>
        <mxCell id="cGzvJtRdP0Fl5jrl48Lq-0" value="finalizarCompra()" style="html=1;verticalAlign=bottom;endArrow=block;entryX=-0.2;entryY=0.335;entryDx=0;entryDy=0;entryPerimeter=0;exitX=1.1;exitY=0.357;exitDx=0;exitDy=0;exitPerimeter=0;" edge="1" parent="TOJOuSTWwBS5npJA74XZ-1" source="lROJfeRpXxGFkvdSh1UE-2" target="lROJfeRpXxGFkvdSh1UE-3">
          <mxGeometry x="0.1974" y="1" width="80" relative="1" as="geometry">
            <mxPoint x="66.36" y="439.9999999999999" as="sourcePoint" />
            <mxPoint x="292.7099999999999" y="439.9999999999999" as="targetPoint" />
            <mxPoint as="offset" />
          </mxGeometry>
        </mxCell>
        <mxCell id="cGzvJtRdP0Fl5jrl48Lq-1" value="PasarelaPago" style="shape=umlLifeline;participant=umlActor;perimeter=lifelinePerimeter;whiteSpace=wrap;html=1;container=1;collapsible=0;recursiveResize=0;verticalAlign=top;spacingTop=36;outlineConnect=0;" vertex="1" parent="TOJOuSTWwBS5npJA74XZ-1">
          <mxGeometry x="710" y="570" width="20" height="160" as="geometry" />
        </mxCell>
        <mxCell id="cGzvJtRdP0Fl5jrl48Lq-2" value="" style="html=1;points=[];perimeter=orthogonalPerimeter;" vertex="1" parent="cGzvJtRdP0Fl5jrl48Lq-1">
          <mxGeometry x="5" y="120" width="10" height="30" as="geometry" />
        </mxCell>
        <mxCell id="cGzvJtRdP0Fl5jrl48Lq-3" value="pagar()" style="html=1;verticalAlign=bottom;endArrow=block;exitX=1.029;exitY=0.24;exitDx=0;exitDy=0;exitPerimeter=0;" edge="1" parent="TOJOuSTWwBS5npJA74XZ-1" source="cGzvJtRdP0Fl5jrl48Lq-8" target="cGzvJtRdP0Fl5jrl48Lq-2">
          <mxGeometry x="0.1974" y="1" width="80" relative="1" as="geometry">
            <mxPoint x="299.70000000000005" y="644.36" as="sourcePoint" />
            <mxPoint x="525.7099999999998" y="645.63" as="targetPoint" />
            <mxPoint as="offset" />
          </mxGeometry>
        </mxCell>
        <mxCell id="cGzvJtRdP0Fl5jrl48Lq-4" value="resultadoPago" style="html=1;verticalAlign=bottom;endArrow=open;dashed=1;endSize=8;exitX=-0.2;exitY=0.991;exitDx=0;exitDy=0;exitPerimeter=0;entryX=1.129;entryY=0.833;entryDx=0;entryDy=0;entryPerimeter=0;" edge="1" parent="TOJOuSTWwBS5npJA74XZ-1" source="cGzvJtRdP0Fl5jrl48Lq-2" target="cGzvJtRdP0Fl5jrl48Lq-8">
          <mxGeometry relative="1" as="geometry">
            <mxPoint x="721.9999999999995" y="700" as="sourcePoint" />
            <mxPoint x="550" y="690" as="targetPoint" />
          </mxGeometry>
        </mxCell>
        <mxCell id="cGzvJtRdP0Fl5jrl48Lq-6" value="[datos correctos]" style="text;html=1;align=center;verticalAlign=middle;resizable=0;points=[];autosize=1;fillColor=#e51400;strokeColor=#B20000;fontColor=#ffffff;" vertex="1" parent="TOJOuSTWwBS5npJA74XZ-1">
          <mxGeometry x="150" y="780" width="100" height="20" as="geometry" />
        </mxCell>
        <mxCell id="cGzvJtRdP0Fl5jrl48Lq-7" value="" style="shape=umlDestroy;whiteSpace=wrap;html=1;strokeWidth=3;" vertex="1" parent="TOJOuSTWwBS5npJA74XZ-1">
          <mxGeometry x="665" y="910" width="30" height="30" as="geometry" />
        </mxCell>
        <mxCell id="cGzvJtRdP0Fl5jrl48Lq-9" value="pagar()" style="html=1;verticalAlign=bottom;endArrow=block;entryX=-0.271;entryY=0.017;entryDx=0;entryDy=0;entryPerimeter=0;exitX=1.114;exitY=0.617;exitDx=0;exitDy=0;exitPerimeter=0;" edge="1" parent="TOJOuSTWwBS5npJA74XZ-1" source="lROJfeRpXxGFkvdSh1UE-3" target="cGzvJtRdP0Fl5jrl48Lq-8">
          <mxGeometry x="0.1974" y="1" width="80" relative="1" as="geometry">
            <mxPoint x="301" y="639" as="sourcePoint" />
            <mxPoint x="725" y="653.8399999999999" as="targetPoint" />
            <mxPoint as="offset" />
          </mxGeometry>
        </mxCell>
        <mxCell id="cGzvJtRdP0Fl5jrl48Lq-11" value="resultadoPago" style="html=1;verticalAlign=bottom;endArrow=open;dashed=1;endSize=8;exitX=0.25;exitY=1.011;exitDx=0;exitDy=0;exitPerimeter=0;entryX=1;entryY=0.675;entryDx=0;entryDy=0;entryPerimeter=0;" edge="1" parent="TOJOuSTWwBS5npJA74XZ-1" source="cGzvJtRdP0Fl5jrl48Lq-8" target="lROJfeRpXxGFkvdSh1UE-3">
          <mxGeometry relative="1" as="geometry">
            <mxPoint x="496.9" y="710" as="sourcePoint" />
            <mxPoint x="330.9999999999999" y="710.5060000000001" as="targetPoint" />
          </mxGeometry>
        </mxCell>
        <mxCell id="cGzvJtRdP0Fl5jrl48Lq-13" value="comprobarImporte()" style="html=1;verticalAlign=bottom;endArrow=block;entryX=0.577;entryY=0.001;entryDx=0;entryDy=0;entryPerimeter=0;exitX=1;exitY=0.351;exitDx=0;exitDy=0;exitPerimeter=0;" edge="1" parent="TOJOuSTWwBS5npJA74XZ-1" source="lROJfeRpXxGFkvdSh1UE-3" target="cGzvJtRdP0Fl5jrl48Lq-12">
          <mxGeometry x="0.1974" y="1" width="80" relative="1" as="geometry">
            <mxPoint x="309.9999999999999" y="451.64" as="sourcePoint" />
            <mxPoint x="536.0099999999999" y="452.74" as="targetPoint" />
            <mxPoint as="offset" />
          </mxGeometry>
        </mxCell>
        <mxCell id="cGzvJtRdP0Fl5jrl48Lq-14" value="importeTotal" style="html=1;verticalAlign=bottom;endArrow=open;dashed=1;endSize=8;entryX=1.1;entryY=0.383;entryDx=0;entryDy=0;entryPerimeter=0;exitX=0.026;exitY=0.988;exitDx=0;exitDy=0;exitPerimeter=0;" edge="1" parent="TOJOuSTWwBS5npJA74XZ-1" source="cGzvJtRdP0Fl5jrl48Lq-12" target="lROJfeRpXxGFkvdSh1UE-3">
          <mxGeometry x="-0.0978" y="1" relative="1" as="geometry">
            <mxPoint x="539.71" y="480.00199999999995" as="sourcePoint" />
            <mxPoint x="302.70999999999975" y="482.61" as="targetPoint" />
            <mxPoint as="offset" />
          </mxGeometry>
        </mxCell>
        <mxCell id="cGzvJtRdP0Fl5jrl48Lq-16" value="[importe &amp;gt; 0]" style="text;html=1;align=center;verticalAlign=middle;resizable=0;points=[];autosize=1;fillColor=#e3c800;strokeColor=#B09500;fontColor=#ffffff;" vertex="1" parent="TOJOuSTWwBS5npJA74XZ-1">
          <mxGeometry x="-100" y="520" width="80" height="20" as="geometry" />
        </mxCell>
      </root>
    </mxGraphModel>
  </diagram>
  <diagram id="yfK9JmMWdl7o4NOx1duI" name="D.Secuencia CU004">
    <mxGraphModel dx="878" dy="435" grid="1" gridSize="10" guides="1" tooltips="1" connect="1" arrows="1" fold="1" page="1" pageScale="1" pageWidth="827" pageHeight="1169" math="0" shadow="0">
      <root>
        <mxCell id="XQfk0EbFI6RyW5RUrFy9-0" />
        <mxCell id="XQfk0EbFI6RyW5RUrFy9-1" parent="XQfk0EbFI6RyW5RUrFy9-0" />
        <mxCell id="dMoCFWgmEO5Q34vsJgh6-0" value="" style="html=1;points=[];perimeter=orthogonalPerimeter;" parent="XQfk0EbFI6RyW5RUrFy9-1" vertex="1">
          <mxGeometry x="775" y="220" width="10" height="60" as="geometry" />
        </mxCell>
        <mxCell id="dMoCFWgmEO5Q34vsJgh6-1" value="" style="html=1;points=[];perimeter=orthogonalPerimeter;" parent="XQfk0EbFI6RyW5RUrFy9-1" vertex="1">
          <mxGeometry x="575" y="210" width="10" height="80" as="geometry" />
        </mxCell>
        <mxCell id="dMoCFWgmEO5Q34vsJgh6-3" value="mostrarCriterios()" style="html=1;verticalAlign=bottom;endArrow=block;entryX=0.7;entryY=0.307;entryDx=0;entryDy=0;entryPerimeter=0;exitX=0.2;exitY=0.025;exitDx=0;exitDy=0;exitPerimeter=0;" parent="XQfk0EbFI6RyW5RUrFy9-1" edge="1">
          <mxGeometry width="80" relative="1" as="geometry">
            <mxPoint x="380" y="180" as="sourcePoint" />
            <mxPoint x="217" y="180.10000000000002" as="targetPoint" />
          </mxGeometry>
        </mxCell>
        <mxCell id="dMoCFWgmEO5Q34vsJgh6-4" value="criterios" style="html=1;verticalAlign=bottom;endArrow=open;dashed=1;endSize=8;entryX=-0.3;entryY=0.213;entryDx=0;entryDy=0;entryPerimeter=0;" parent="XQfk0EbFI6RyW5RUrFy9-1" edge="1">
          <mxGeometry relative="1" as="geometry">
            <mxPoint x="215" y="199.50000000000003" as="sourcePoint" />
            <mxPoint x="367" y="199.50000000000003" as="targetPoint" />
          </mxGeometry>
        </mxCell>
        <mxCell id="dMoCFWgmEO5Q34vsJgh6-5" value="buscarProductos(criterios)" style="html=1;verticalAlign=bottom;endArrow=block;entryX=0.418;entryY=0.024;entryDx=0;entryDy=0;entryPerimeter=0;" parent="XQfk0EbFI6RyW5RUrFy9-1" target="dMoCFWgmEO5Q34vsJgh6-1" edge="1">
          <mxGeometry width="80" relative="1" as="geometry">
            <mxPoint x="380.0035294117647" y="210" as="sourcePoint" />
            <mxPoint x="571.6200000000001" y="210.00000000000006" as="targetPoint" />
          </mxGeometry>
        </mxCell>
        <mxCell id="dMoCFWgmEO5Q34vsJgh6-6" value="buscarProductos(criterios)" style="html=1;verticalAlign=bottom;endArrow=block;entryX=0.182;entryY=0.003;entryDx=0;entryDy=0;entryPerimeter=0;exitX=1.241;exitY=0.112;exitDx=0;exitDy=0;exitPerimeter=0;" parent="XQfk0EbFI6RyW5RUrFy9-1" source="dMoCFWgmEO5Q34vsJgh6-1" target="dMoCFWgmEO5Q34vsJgh6-0" edge="1">
          <mxGeometry width="80" relative="1" as="geometry">
            <mxPoint x="590" y="220" as="sourcePoint" />
            <mxPoint x="770" y="222" as="targetPoint" />
          </mxGeometry>
        </mxCell>
        <mxCell id="dMoCFWgmEO5Q34vsJgh6-7" value="productos" style="html=1;verticalAlign=bottom;endArrow=open;dashed=1;endSize=8;" parent="XQfk0EbFI6RyW5RUrFy9-1" edge="1">
          <mxGeometry relative="1" as="geometry">
            <mxPoint x="780" y="280" as="sourcePoint" />
            <mxPoint x="590" y="280" as="targetPoint" />
          </mxGeometry>
        </mxCell>
        <mxCell id="dMoCFWgmEO5Q34vsJgh6-8" value="productos" style="html=1;verticalAlign=bottom;endArrow=open;dashed=1;endSize=8;entryX=1.035;entryY=0.385;entryDx=0;entryDy=0;entryPerimeter=0;" parent="XQfk0EbFI6RyW5RUrFy9-1" edge="1">
          <mxGeometry relative="1" as="geometry">
            <mxPoint x="580" y="290" as="sourcePoint" />
            <mxPoint x="380.3499999999999" y="289.4000000000001" as="targetPoint" />
          </mxGeometry>
        </mxCell>
        <mxCell id="dMoCFWgmEO5Q34vsJgh6-9" value="" style="shape=umlLifeline;participant=umlActor;perimeter=lifelinePerimeter;whiteSpace=wrap;html=1;container=1;collapsible=0;recursiveResize=0;verticalAlign=top;spacingTop=36;labelBackgroundColor=#ffffff;outlineConnect=0;" parent="XQfk0EbFI6RyW5RUrFy9-1" vertex="1">
          <mxGeometry x="200" y="60" width="20" height="340" as="geometry" />
        </mxCell>
        <mxCell id="dMoCFWgmEO5Q34vsJgh6-10" value="" style="html=1;points=[];perimeter=orthogonalPerimeter;" parent="dMoCFWgmEO5Q34vsJgh6-9" vertex="1">
          <mxGeometry x="5" y="90" width="10" height="200" as="geometry" />
        </mxCell>
        <mxCell id="dMoCFWgmEO5Q34vsJgh6-13" value=":GestionProductos" style="shape=umlLifeline;participant=umlControl;perimeter=lifelinePerimeter;whiteSpace=wrap;html=1;container=1;collapsible=0;recursiveResize=0;verticalAlign=top;spacingTop=36;labelBackgroundColor=#ffffff;outlineConnect=0;" parent="XQfk0EbFI6RyW5RUrFy9-1" vertex="1">
          <mxGeometry x="560" y="50" width="40" height="350" as="geometry" />
        </mxCell>
        <mxCell id="dMoCFWgmEO5Q34vsJgh6-14" value=":BusquedaProductos" style="shape=umlLifeline;participant=umlBoundary;perimeter=lifelinePerimeter;whiteSpace=wrap;html=1;container=1;collapsible=0;recursiveResize=0;verticalAlign=top;spacingTop=36;labelBackgroundColor=#ffffff;outlineConnect=0;" parent="XQfk0EbFI6RyW5RUrFy9-1" vertex="1">
          <mxGeometry x="350" y="60" width="50" height="340" as="geometry" />
        </mxCell>
        <mxCell id="dMoCFWgmEO5Q34vsJgh6-15" value="" style="html=1;points=[];perimeter=orthogonalPerimeter;" parent="XQfk0EbFI6RyW5RUrFy9-1" vertex="1">
          <mxGeometry x="370" y="150" width="10" height="200" as="geometry" />
        </mxCell>
        <mxCell id="dMoCFWgmEO5Q34vsJgh6-16" value=":DatosProductos" style="shape=umlLifeline;participant=umlEntity;perimeter=lifelinePerimeter;whiteSpace=wrap;html=1;container=1;collapsible=0;recursiveResize=0;verticalAlign=top;spacingTop=36;labelBackgroundColor=#ffffff;outlineConnect=0;" parent="XQfk0EbFI6RyW5RUrFy9-1" vertex="1">
          <mxGeometry x="759" y="50" width="40" height="350" as="geometry" />
        </mxCell>
        <mxCell id="HdCjOg9ejngYRNFxcv93-0" value="buscarProductos()" style="html=1;verticalAlign=bottom;endArrow=block;entryX=0.2;entryY=0;entryDx=0;entryDy=0;entryPerimeter=0;exitX=0.8;exitY=0.012;exitDx=0;exitDy=0;exitPerimeter=0;" edge="1" parent="XQfk0EbFI6RyW5RUrFy9-1" source="dMoCFWgmEO5Q34vsJgh6-10" target="dMoCFWgmEO5Q34vsJgh6-15">
          <mxGeometry width="80" relative="1" as="geometry">
            <mxPoint x="390" y="190" as="sourcePoint" />
            <mxPoint x="227" y="190.10000000000002" as="targetPoint" />
          </mxGeometry>
        </mxCell>
        <mxCell id="HdCjOg9ejngYRNFxcv93-1" value="return" style="html=1;verticalAlign=bottom;endArrow=open;dashed=1;endSize=8;entryX=0.3;entryY=0.755;entryDx=0;entryDy=0;entryPerimeter=0;" edge="1" parent="XQfk0EbFI6RyW5RUrFy9-1" target="dMoCFWgmEO5Q34vsJgh6-10">
          <mxGeometry relative="1" as="geometry">
            <mxPoint x="370" y="300" as="sourcePoint" />
            <mxPoint x="220" y="300" as="targetPoint" />
          </mxGeometry>
        </mxCell>
      </root>
    </mxGraphModel>
  </diagram>
</mxfile>
